HIERARCHY
ROOT Hips
{
	OFFSET	0.00	0.00	0.00
	CHANNELS 6 Xposition Yposition Zposition Zrotation Xrotation Yrotation
	JOINT LeftUpperLeg
	{
		OFFSET	 0.100000	-0.066564	-0.000554
		CHANNELS 3 Zrotation Xrotation Yrotation
		JOINT LeftLowerLeg
		{
			OFFSET	 0.002447	-0.463436	-0.005172
			CHANNELS 3 Zrotation Xrotation Yrotation
			JOINT LeftFoot
			{
				OFFSET	-0.002447	-0.420480	-0.020576
				CHANNELS 3 Zrotation Xrotation Yrotation
				JOINT LeftToes
				{
					OFFSET	 0.003734	-0.104922	 0.126407
					CHANNELS 3 Zrotation Xrotation Yrotation
					End Site
					{
						OFFSET	 0.000000	 0.000000	 0.059955
					}
				}
			}
		}
	}
	JOINT RightUpperLeg
	{
		OFFSET	-0.100000	-0.066564	-0.000554
		CHANNELS 3 Zrotation Xrotation Yrotation
		JOINT RightLowerLeg
		{
			OFFSET	-0.002447	-0.463436	-0.005146
			CHANNELS 3 Zrotation Xrotation Yrotation
			JOINT RightFoot
			{
				OFFSET	 0.002447	-0.420479	-0.020602
				CHANNELS 3 Zrotation Xrotation Yrotation
				JOINT RightToes
				{
					OFFSET	-0.003734	-0.104922	 0.126407
					CHANNELS 3 Zrotation Xrotation Yrotation
					End Site
					{
						OFFSET	-0.000000	 0.000000	 0.059955
					}
				}
			}
		}
	}
	JOINT Spine
	{
		OFFSET	 0.000000	 0.099235	-0.012273
		CHANNELS 3 Zrotation Xrotation Yrotation
		JOINT Chest
		{
			OFFSET	-0.000001	 0.116455	-0.014223
			CHANNELS 3 Zrotation Xrotation Yrotation
			JOINT UpperChest
			{
				OFFSET	 0.000001	 0.133602	-0.016265
				CHANNELS 3 Zrotation Xrotation Yrotation
				JOINT LeftShoulder
				{
					OFFSET	 0.061058	 0.091105	 0.007056
					CHANNELS 3 Zrotation Xrotation Yrotation
					JOINT LeftUpperArm
					{
						OFFSET	 0.133942	-0.002659	-0.026009
						CHANNELS 3 Zrotation Xrotation Yrotation
						JOINT LeftLowerArm
						{
							OFFSET	 0.274047	 0.000000	 0.000000
							CHANNELS 3 Zrotation Xrotation Yrotation
							JOINT LeftHand
							{
								OFFSET	 0.276145	 0.000000	 0.000000
								CHANNELS 3 Zrotation Xrotation Yrotation
								End Site
								{
									OFFSET	 0.165687	 0.000000	 0.000000
								}
							}
						}
					}
				}
				JOINT Neck
				{
					OFFSET	 0.000000	 0.150325	 0.007929
					CHANNELS 3 Zrotation Xrotation Yrotation
					JOINT Head
					{
						OFFSET	 0.000000	 0.103218	 0.031424
						CHANNELS 3 Zrotation Xrotation Yrotation
						End Site
						{
							OFFSET	 0.000000	 0.061931	 0.018855
						}
					}
				}
				JOINT RightShoulder
				{
					OFFSET	-0.061057	 0.091105	 0.007056
					CHANNELS 3 Zrotation Xrotation Yrotation
					JOINT RightUpperArm
					{
						OFFSET	-0.133943	-0.002660	-0.026009
						CHANNELS 3 Zrotation Xrotation Yrotation
						JOINT RightLowerArm
						{
							OFFSET	-0.274047	 0.000000	 0.000000
							CHANNELS 3 Zrotation Xrotation Yrotation
							JOINT RightHand
							{
								OFFSET	-0.276145	 0.000000	 0.000000
								CHANNELS 3 Zrotation Xrotation Yrotation
								End Site
								{
									OFFSET	-0.165687	 0.000000	 0.000000
								}
							}
						}
					}
				}
			}
		}
	}
}
MOTION
Frames:    12
Frame Time: 0.03333334
-0.439480	 1.056140	-0.007140	-1.298675	 3.232116	 3.908913	 4.785476	-6.069530	 20.020170	 0.015445	 12.575180	-0.010701	 0.836489	-8.741896	 12.938430	-0.000313	 0.797230	 0.000190	 2.180726	-1.238784	-29.888710	 0.004800	 4.362284	 0.002145	 1.304427	-8.120405	-1.392796	 0.000109	 1.383649	 0.000126	 1.236651	-0.212985	-1.708491	-0.000000	 0.000000	 0.000000	 2.469514	-0.461037	-3.419584	-2.361251	 4.155045	 7.912755	-75.594660	-20.987710	-9.957490	-22.756610	 18.829760	-52.245620	-2.991713	 19.518940	-33.170550	 5.163862	 8.515564	-22.369440	 5.137767	 8.262306	-22.137390	-2.890582	 2.355752	-6.980121	 77.015960	-22.841450	 4.636135	 29.057990	 6.690642	 57.659400	-7.781600	-3.954663	 4.738689
-0.455320	 1.055460	-0.013970	-0.833503	 4.111703	 5.498251	 5.382452	-8.155600	 19.591140	 0.016157	 13.434210	-0.011514	-0.313828	-7.051585	 11.373300	-0.000565	 0.370479	 0.513225	 1.842750	-3.892109	-30.396860	-0.007506	 7.544354	 0.006348	-0.047654	-10.202440	-2.377141	-0.000192	 1.665697	-0.000278	 1.167876	-0.290170	-1.889563	-0.000000	 0.000000	 0.000000	 2.330080	-0.621470	-3.777345	-2.618584	 3.801013	 7.966414	-76.899600	-20.046020	-13.662000	-27.236710	 14.700330	-48.470590	-7.682201	 13.137330	-22.109130	 5.686727	 7.645483	-21.687000	 5.734592	 7.829676	-21.569330	-3.169294	 2.178988	-6.934289	 74.993330	-22.861460	 5.311440	 29.519440	 7.175222	 58.900390	-9.106506	-3.183779	 5.174218
-0.460800	 1.054320	-0.016870	-0.836664	 4.300370	 6.249859	 5.979051	-9.539166	 19.001510	-0.016770	 15.168870	-0.009104	-1.066087	-6.980567	 11.085110	 0.000205	 0.368940	 0.454448	 1.697475	-5.057384	-30.364000	-0.001448	 9.317504	 0.006674	-0.548623	-10.957020	-3.220165	-0.000165	 1.512955	-0.001212	 1.195506	-0.331767	-1.952131	-0.000000	 0.000000	 0.000000	 2.381579	-0.705121	-3.902854	-2.385021	 3.632651	 7.741217	-76.542790	-19.524850	-15.172800	-28.130860	 13.410420	-48.075340	-9.020154	 11.260480	-20.202240	 6.044073	 7.657094	-21.504980	 5.971068	 7.749747	-21.387270	-3.143890	 2.048722	-6.857550	 73.343320	-23.430170	 6.241894	 29.476820	 7.072187	 59.573140	-9.812510	-3.511801	 6.080685
-0.460800	 1.054320	-0.016870	-0.836664	 4.300370	 6.249859	 5.979051	-9.539166	 19.001510	-0.016770	 15.168870	-0.009104	-1.066087	-6.980567	 11.085110	 0.000205	 0.368940	 0.454448	 1.697475	-5.057384	-30.364000	-0.001448	 9.317504	 0.006674	-0.548623	-10.957020	-3.220165	-0.000165	 1.512955	-0.001212	 1.195506	-0.331767	-1.952131	-0.000000	 0.000000	 0.000000	 2.381579	-0.705121	-3.902854	-2.385021	 3.632651	 7.741217	-76.542790	-19.524850	-15.172800	-28.130860	 13.410420	-48.075340	-9.020154	 11.260480	-20.202240	 6.044073	 7.657094	-21.504980	 5.971068	 7.749747	-21.387270	-3.143890	 2.048722	-6.857550	 73.343320	-23.430170	 6.241894	 29.476820	 7.072187	 59.573140	-9.812510	-3.511801	 6.080685
-0.465240	 1.052850	-0.019710	-0.871204	 4.274786	 7.019373	 6.483722	-10.145440	 18.732500	-0.145090	 15.886670	 0.009687	-2.068511	-7.076807	 10.318910	 0.000501	-0.060026	 0.159174	 1.467652	-6.112125	-30.352640	 0.012219	 11.367940	 0.007025	-0.932447	-11.990390	-4.022061	-0.000858	 1.513385	 0.000261	 1.237633	-0.311226	-2.014464	-0.000000	 0.000000	 0.000000	 2.468474	-0.667818	-4.027510	-2.107955	 3.392375	 7.305168	-76.063740	-19.427710	-16.550490	-27.658490	 13.439790	-48.733410	-9.460609	 9.175020	-20.112200	 6.140905	 7.712773	-21.434970	 6.039602	 7.684339	-21.303950	-3.216847	 1.736818	-6.779749	 71.422970	-24.103450	 7.582370	 29.222490	 6.550307	 60.365040	-10.743050	-4.759626	 7.300292
-0.466700	 1.050850	-0.022530	-0.252849	 3.871434	 7.572248	 6.277777	-9.613331	 21.441290	-0.005142	 15.619670	-0.010698	-2.888963	-7.481651	 6.626908	 0.000423	 0.357120	 0.189079	 0.213138	-7.127271	-30.346690	 0.005972	 14.401700	 0.010779	-1.078683	-13.338480	-4.691801	 0.000974	 1.431016	 0.000415	 1.304641	-0.148005	-2.258472	-0.000000	 0.000000	 0.000000	 2.607547	-0.348764	-4.519491	-1.756128	 3.105602	 6.797021	-76.341480	-20.953160	-19.335660	-28.649660	 13.604660	-48.082020	-12.989650	 5.287161	-18.146350	 6.153202	 7.770498	-21.365430	 5.967862	 7.495108	-20.834050	-3.917495	 1.169666	-6.161792	 68.745390	-25.794930	 10.366270	 27.951130	 5.659129	 61.138350	-10.720290	-7.686066	 9.744781
-0.466630	 1.049470	-0.022440	 0.312023	 3.339111	 7.613259	 6.330451	-9.528086	 23.952190	 0.007970	 16.925040	-0.010974	-2.579212	-7.578093	 4.208254	 0.000343	 0.359748	 0.236325	-0.702124	-7.292665	-30.122620	 0.015479	 16.157880	 0.008318	-1.015854	-14.099680	-5.067847	-0.000209	 1.307409	-0.000079	 1.236303	-0.063164	-2.302036	-0.000000	 0.000000	 0.000000	 2.472776	-0.174580	-4.608778	-1.076902	 2.894391	 6.591250	-77.161910	-22.979160	-21.705880	-30.039540	 14.009620	-47.209930	-15.890890	 1.608423	-16.202640	 5.739363	 7.818248	-20.762240	 5.873618	 7.666023	-20.656350	-4.387043	 0.722815	-5.383526	 67.031490	-27.657990	 13.796730	 26.492180	 5.061313	 61.127220	-10.552920	-10.078230	 12.676810
-0.465200	 1.048520	-0.020970	 0.372814	 2.875548	 7.608727	 7.224457	-10.253660	 26.400730	 0.004840	 19.868000	-0.009399	-1.903692	-7.704036	 2.025019	-0.000261	-0.909392	 0.184751	-0.992417	-7.129959	-29.950590	 0.032352	 17.087990	 0.005569	-0.906924	-14.598650	-5.204225	 0.000115	 1.287349	-0.000423	 1.436781	-0.140158	-2.454019	-0.000000	 0.000000	 0.000000	 2.872234	-0.341887	-4.913960	-0.013594	 2.564432	 6.140171	-77.615540	-24.630150	-24.134990	-31.245030	 14.126380	-46.432760	-19.336700	-3.170707	-14.780510	 6.056866	 7.967195	-20.640080	 5.603549	 8.132697	-20.345230	-4.653923	-0.038985	-4.748946	 65.386470	-29.418260	 17.420830	 24.663380	 4.198674	 60.762940	-10.041810	-13.786410	 13.824690
-0.465200	 1.048520	-0.020970	 0.372814	 2.875548	 7.608727	 7.224457	-10.253660	 26.400730	 0.004840	 19.868000	-0.009399	-1.903692	-7.704036	 2.025019	-0.000261	-0.909392	 0.184751	-0.992417	-7.129959	-29.950590	 0.032352	 17.087990	 0.005569	-0.906924	-14.598650	-5.204225	 0.000115	 1.287349	-0.000423	 1.436781	-0.140158	-2.454019	-0.000000	 0.000000	 0.000000	 2.872234	-0.341887	-4.913960	-0.013594	 2.564432	 6.140171	-77.615540	-24.630150	-24.134990	-31.245030	 14.126380	-46.432760	-19.336700	-3.170707	-14.780510	 6.056866	 7.967195	-20.640080	 5.603549	 8.132697	-20.345230	-4.653923	-0.038985	-4.748946	 65.386470	-29.418260	 17.420830	 24.663380	 4.198674	 60.762940	-10.041810	-13.786410	 13.824690
-0.460180	 1.048950	-0.014810	 0.716756	 1.899620	 6.898646	 8.364076	-10.538950	 30.049720	 0.151182	 24.097040	-0.036832	-1.011792	-7.428977	-0.879213	 0.000745	-2.840794	 0.306281	-1.404801	-5.730599	-29.366120	 0.016572	 17.009980	 0.008463	-0.435215	-14.649750	-5.103514	-0.000241	 1.196736	-0.000476	 1.550110	-0.379619	-2.381096	-0.000000	 0.000000	 0.000000	 3.088850	-0.823500	-4.761392	 0.229271	 1.941537	 6.154689	-77.033950	-26.534730	-28.033800	-33.126370	 13.696090	-45.889000	-23.695770	-10.806900	-13.369830	 5.838861	 8.794938	-19.780340	 5.614388	 9.238016	-19.978820	-6.051989	-1.458888	-3.433672	 62.909420	-31.181760	 23.819630	 21.882320	 1.618080	 59.827070	-8.350252	-18.757600	 15.780820
-0.452790	 1.051510	-0.004430	 1.561595	 0.421183	 5.974659	 8.154277	-9.618790	 28.870320	 0.104177	 26.006690	-0.028690	-0.217150	-5.448228	 0.277285	-0.000202	-5.826413	 0.571213	-2.005177	-2.778874	-28.760890	-0.017702	 15.220150	 0.013502	 0.085670	-14.066390	-4.778781	-0.000224	 1.175487	 0.000264	 1.217902	-0.663215	-2.056427	-0.000000	 0.000000	 0.000000	 2.414634	-1.374154	-4.106606	 0.896837	 1.712070	 5.113899	-76.266850	-29.976620	-34.383780	-34.964040	 14.044100	-44.937810	-28.020180	-19.575070	-16.005770	 5.003098	 10.349410	-19.299490	 5.767149	 10.884940	-20.034120	-8.103229	-3.200576	-3.359062	 60.041690	-31.103730	 32.897280	 15.965330	-1.136649	 59.135910	-10.931630	-19.699910	 17.301200
-0.449270	 1.052940	-0.000090	 1.693075	-0.127278	 5.748268	 7.016654	-8.331289	 26.127050	 0.001168	 24.001590	-0.007416	-0.467505	-5.515819	 3.299413	-0.000344	-4.735589	 0.514946	-1.901749	-1.289984	-28.428130	 0.008120	 13.702400	 0.008949	 0.218743	-13.480670	-4.840683	 0.000920	 1.214189	 0.000629	 1.160265	-0.863317	-2.015599	-0.000000	 0.000000	 0.000000	 2.295523	-1.769189	-4.021008	 2.454248	 1.681774	 3.784610	-75.373330	-31.401520	-38.211970	-35.497330	 13.219050	-44.730280	-29.640050	-23.855240	-18.842330	 5.850214	 10.904330	-19.782800	 5.965317	 11.295430	-19.914440	-8.775024	-4.118104	-3.761574	 57.955480	-30.210720	 36.375080	 12.496680	-2.567834	 58.251720	-14.258870	-19.326550	 17.880850
